<svg xmlns="http://www.w3.org/2000/svg"><symbol id="icon-email-r" viewBox="-2 -2 30 30">
    <path fill="tomato" d="M12.042 23.648C4.229 23.648 0 18.772 0 12.477 0 5.75 4.762.352 13.276.352 19.49.352 24 4.39 24 9.953c0 8.712-10.33 11.012-9.812 6.042-.71 1.108-1.854 2.354-4.053 2.354-2.516 0-4.08-1.842-4.08-4.807 0-4.444 2.921-8.199 6.379-8.199 1.659 0 2.8.876 3.277 2.221l.464-1.632h2.338c-.244.832-2.321 8.527-2.321 8.527-.648 2.666 1.35 2.713 3.122 1.297 3.329-2.58 3.501-9.327-.998-12.141C13.495.724 2.521 2.513 2.521 12.308c0 5.611 3.95 9.381 9.829 9.381 3.436 0 5.542-.93 7.295-1.948l1.177 1.698c-1.711.966-4.461 2.209-8.78 2.209zM9.698 9.343c-.715 1.34-1.177 3.076-1.177 4.424 0 3.61 3.522 3.633 5.252.239.712-1.394 1.171-3.171 1.171-4.529 0-2.917-3.495-3.434-5.246-.134z"/>
</symbol><symbol id="icon-menu" viewBox="0 0 24 24">
    <path fill="#114b5f" d="M24 6H0V2h24v4zm0 4H0v4h24v-4zm0 8H0v4h24v-4z"/>
</symbol><symbol id="icon-phone-r" viewBox="0 0 24 24">
    <path fill="tomato" d="M16 0v3H8a2 2 0 0 0-2 2v17a2 2 0 0 0 2 2h8a2 2 0 0 0 2-2V0h-2zm-6 21H8v-1h2v1zm0-2H8v-1h2v1zm0-2H8v-1h2v1zm3 4h-2v-1h2v1zm0-2h-2v-1h2v1zm0-2h-2v-1h2v1zm3 4h-2v-1h2v1zm0-2h-2v-1h2v1zm0-2h-2v-1h2v1zm0-3H8V6h8v8z"/>
</symbol><symbol id="icon-phone" viewBox="0 0 24 24">
    <path fill="#fff" d="M16 0v3H8a2 2 0 0 0-2 2v17a2 2 0 0 0 2 2h8a2 2 0 0 0 2-2V0h-2zm-6 21H8v-1h2v1zm0-2H8v-1h2v1zm0-2H8v-1h2v1zm3 4h-2v-1h2v1zm0-2h-2v-1h2v1zm0-2h-2v-1h2v1zm3 4h-2v-1h2v1zm0-2h-2v-1h2v1zm0-2h-2v-1h2v1zm0-3H8V6h8v8z"/>
</symbol><symbol id="icon-place-r" viewBox="0 0 24 24">
    <path fill="tomato" d="M12 0C7.802 0 4 3.403 4 7.602 4 11.8 7.469 16.812 12 24c4.531-7.188 8-12.2 8-16.398C20 3.403 16.199 0 12 0zm0 11a3 3 0 1 1 0-6 3 3 0 0 1 0 6z"/>
</symbol><symbol id="icon-place" viewBox="0 0 24 24">
    <path fill="#fff" d="M12 0C7.802 0 4 3.403 4 7.602 4 11.8 7.469 16.812 12 24c4.531-7.188 8-12.2 8-16.398C20 3.403 16.199 0 12 0zm0 11a3 3 0 1 1 0-6 3 3 0 0 1 0 6z"/>
</symbol><symbol id="icon-up" viewBox="0 0 24 24">
    <path fill="tomato" d="M12 0C5.373 0 0 5.373 0 12s5.373 12 12 12 12-5.373 12-12S18.627 0 12 0zm0 7.58l5.995 5.988-1.416 1.414L12 10.408l-4.59 4.574-1.416-1.414L12 7.58z"/>
</symbol></svg>